<svg width="38" height="38" viewBox="0 0 38 38" fill="none" xmlns="http://www.w3.org/2000/svg">
<g filter="url(#filter0_d)">
<path d="M23.855 6.54664C24.2123 6.54664 24.5424 6.73724 24.721 7.04664L30.6903 17.3857C30.869 17.6951 30.869 18.0763 30.6903 18.3857L24.721 28.7249C24.5424 29.0343 24.2123 29.2249 23.855 29.2249L11.9164 29.2249C11.5592 29.2249 11.2291 29.0343 11.0504 28.7249L5.08113 18.3857C4.9025 18.0763 4.9025 17.6951 5.08113 17.3857L11.0504 7.04664C11.2291 6.73724 11.5592 6.54664 11.9164 6.54664L23.855 6.54664Z" fill="white"/>
<path d="M23.855 7.04664C24.0337 7.04664 24.1987 7.14194 24.288 7.29664L30.2573 17.6357C30.3466 17.7904 30.3466 17.981 30.2573 18.1357L24.288 28.4749C24.1987 28.6296 24.0337 28.7249 23.855 28.7249L11.9164 28.7249C11.7378 28.7249 11.5728 28.6296 11.4834 28.4749L5.51415 18.1357C5.42483 17.981 5.42483 17.7904 5.51415 17.6357L11.4834 7.29664C11.5727 7.14194 11.7378 7.04664 11.9164 7.04664L23.855 7.04664Z" stroke="#FFA000"/>
</g>
<path d="M19.0996 16.8369H22.2725V19.1309H19.0996V22.7168H16.6826V19.1309H13.501V16.8369H16.6826V13.4004H19.0996V16.8369Z" fill="#FFA000"/>
<defs>
<filter id="filter0_d" x="0.596497" y="0.0110626" width="36.5785" height="37.7494" filterUnits="userSpaceOnUse" color-interpolation-filters="sRGB">
<feFlood flood-opacity="0" result="BackgroundImageFix"/>
<feColorMatrix in="SourceAlpha" type="matrix" values="0 0 0 0 0 0 0 0 0 0 0 0 0 0 0 0 0 0 127 0"/>
<feOffset dx="1" dy="1"/>
<feGaussianBlur stdDeviation="1"/>
<feColorMatrix type="matrix" values="0 0 0 0 0 0 0 0 0 0 0 0 0 0 0 0 0 0 0.1 0"/>
<feBlend mode="normal" in2="BackgroundImageFix" result="effect1_dropShadow"/>
<feBlend mode="normal" in="SourceGraphic" in2="effect1_dropShadow" result="shape"/>
</filter>
</defs>
</svg>
