<svg width="38" height="38" viewBox="0 0 38 38" fill="none" xmlns="http://www.w3.org/2000/svg">
<g filter="url(#filter0_d)">
<path d="M23.855 6.54664C24.2123 6.54664 24.5424 6.73724 24.721 7.04664L30.6903 17.3857C30.869 17.6951 30.869 18.0763 30.6903 18.3857L24.721 28.7249C24.5424 29.0343 24.2123 29.2249 23.855 29.2249L11.9164 29.2249C11.5592 29.2249 11.2291 29.0343 11.0504 28.7249L5.08113 18.3857C4.9025 18.0763 4.9025 17.6951 5.08113 17.3857L11.0504 7.04664C11.2291 6.73724 11.5592 6.54664 11.9164 6.54664L23.855 6.54664Z" fill="#FFA000"/>
</g>
<path d="M22.3857 17.1857C22.8964 16.4786 23.2107 15.6536 23.25 14.75C23.25 13.2179 22.0321 12 20.5 12C18.9679 12 17.75 13.2179 17.75 14.75C17.7893 15.6143 18.1036 16.4786 18.6143 17.1857C16.5321 17.5 15 19.3071 15 21.4286V22.6071C15 22.8429 15.1571 23 15.3929 23H25.6071C25.8429 23 26 22.8429 26 22.6071V21.4286C26 19.3071 24.4679 17.5 22.3857 17.1857ZM20.5 12.7857C21.6 12.7857 22.4643 13.65 22.4643 14.75C22.425 15.6929 21.9929 16.5571 21.2857 17.1857C20.9714 17.5 20.5 17.5786 20.1071 17.4214C19.95 17.3821 19.8321 17.3036 19.7143 17.1857C19.0071 16.5571 18.575 15.6929 18.5357 14.75C18.5357 13.65 19.4 12.7857 20.5 12.7857ZM25.2143 22.2143H15.7857V21.4286C15.7857 19.4643 17.3571 17.8929 19.3214 17.8929H19.3607L19.4786 17.9714C19.5179 18.0107 19.5571 18.0107 19.5964 18.05L19.7536 18.1286L19.9107 18.2071H19.95C20.1071 18.2857 20.3036 18.2857 20.5 18.325C20.6964 18.325 20.8536 18.2857 21.05 18.2464H21.0893L21.2857 18.1679L21.4429 18.0893L21.5607 18.0107L21.6786 17.8929C23.6429 17.8929 25.2143 19.4643 25.2143 21.4286V22.2143Z" fill="white"/>
<path d="M12.5801 16.6611H15.3555V17.8574H12.5801V21.002H11.3086V17.8574H8.5332V16.6611H11.3086V13.7559H12.5801V16.6611Z" fill="white"/>
<defs>
<filter id="filter0_d" x="0.596436" y="0.0110474" width="36.5785" height="37.7494" filterUnits="userSpaceOnUse" color-interpolation-filters="sRGB">
<feFlood flood-opacity="0" result="BackgroundImageFix"/>
<feColorMatrix in="SourceAlpha" type="matrix" values="0 0 0 0 0 0 0 0 0 0 0 0 0 0 0 0 0 0 127 0"/>
<feOffset dx="1" dy="1"/>
<feGaussianBlur stdDeviation="1"/>
<feColorMatrix type="matrix" values="0 0 0 0 0 0 0 0 0 0 0 0 0 0 0 0 0 0 0.1 0"/>
<feBlend mode="normal" in2="BackgroundImageFix" result="effect1_dropShadow"/>
<feBlend mode="normal" in="SourceGraphic" in2="effect1_dropShadow" result="shape"/>
</filter>
</defs>
</svg>
