<svg width="38" height="38" viewBox="0 0 38 38" fill="none" xmlns="http://www.w3.org/2000/svg">
<g filter="url(#filter0_d)">
<path d="M23.855 6.54664C24.2123 6.54664 24.5424 6.73724 24.721 7.04664L30.6903 17.3857C30.869 17.6951 30.869 18.0763 30.6903 18.3857L24.721 28.7249C24.5424 29.0343 24.2123 29.2249 23.855 29.2249L11.9164 29.2249C11.5592 29.2249 11.2291 29.0343 11.0504 28.7249L5.08113 18.3857C4.9025 18.0763 4.9025 17.6951 5.08113 17.3857L11.0504 7.04664C11.2291 6.73724 11.5592 6.54664 11.9164 6.54664L23.855 6.54664Z" fill="#FFA000"/>
</g>
<path d="M13.5 15.1392H19.6688C19.8817 15.8058 20.4985 16.272 21.225 16.272C21.9515 16.272 22.568 15.8058 22.7807 15.1392H23.4972C23.7732 15.1392 23.9972 14.9153 23.9972 14.6392C23.9972 14.363 23.7732 14.1392 23.4972 14.1392H22.7832C22.5723 13.4725 21.9538 13 21.225 13C20.4962 13 19.8773 13.4725 19.6665 14.1392H13.5C13.2238 14.1392 13 14.363 13 14.6392C13 14.9153 13.2238 15.1392 13.5 15.1392ZM21.225 13.9725C21.5757 13.9725 21.8607 14.2578 21.8607 14.6085C21.8607 14.9592 21.5755 15.2445 21.225 15.2445C20.8743 15.2445 20.589 14.9592 20.589 14.6085C20.589 14.2578 20.8742 13.9725 21.225 13.9725Z" fill="white"/>
<path d="M23.497 17.9725H17.328C17.1152 17.3058 16.4985 16.8397 15.772 16.8397C15.0455 16.8397 14.4287 17.3058 14.2158 17.9725H13.5C13.2238 17.9725 13 18.1963 13 18.4725C13 18.7487 13.2238 18.9725 13.5 18.9725H14.2137C14.4247 19.6392 15.0432 20.1117 15.772 20.1117C16.5008 20.1117 17.1193 19.6392 17.3302 18.9725H18.0148C18.0247 18.9725 18.034 18.9725 18.0438 18.9725H23.497C23.7732 18.9725 24 18.7502 24 18.474C24 18.4735 24 18.473 24 18.4725C24 18.472 24 18.4715 24 18.471C24 18.1948 23.7732 17.9725 23.497 17.9725ZM15.772 19.1102C15.4213 19.1102 15.136 18.8247 15.136 18.474C15.136 18.1233 15.4213 17.8383 15.772 17.8383C16.1227 17.8383 16.408 18.1235 16.408 18.474C16.408 18.8247 16.1227 19.1102 15.772 19.1102Z" fill="white"/>
<path d="M23.497 21.8058H20.737C20.5252 21.1391 19.9075 20.67 19.1798 20.67C18.4522 20.67 17.8347 21.1391 17.6228 21.8058H13.5C13.2238 21.8058 13 22.0296 13 22.3058C13 22.582 13.2238 22.8058 13.5 22.8058H17.6227C17.8345 23.4725 18.4523 23.9418 19.18 23.9418C19.9077 23.9418 20.5253 23.4725 20.7373 22.8058H23.4972C23.7732 22.8058 23.9972 22.582 23.9972 22.3058C23.9972 22.0296 23.7732 21.8058 23.497 21.8058ZM19.18 22.9725C18.8293 22.9725 18.544 22.6871 18.544 22.3365C18.544 21.9858 18.8295 21.7006 19.18 21.7006C19.5307 21.7006 19.816 21.986 19.816 22.3365C19.816 22.6871 19.5308 22.9725 19.18 22.9725Z" fill="white"/>
<defs>
<filter id="filter0_d" x="0.596436" y="0.0110474" width="36.5785" height="37.7494" filterUnits="userSpaceOnUse" color-interpolation-filters="sRGB">
<feFlood flood-opacity="0" result="BackgroundImageFix"/>
<feColorMatrix in="SourceAlpha" type="matrix" values="0 0 0 0 0 0 0 0 0 0 0 0 0 0 0 0 0 0 127 0"/>
<feOffset dx="1" dy="1"/>
<feGaussianBlur stdDeviation="1"/>
<feColorMatrix type="matrix" values="0 0 0 0 0 0 0 0 0 0 0 0 0 0 0 0 0 0 0.1 0"/>
<feBlend mode="normal" in2="BackgroundImageFix" result="effect1_dropShadow"/>
<feBlend mode="normal" in="SourceGraphic" in2="effect1_dropShadow" result="shape"/>
</filter>
</defs>
</svg>
