<svg width="21" height="21" viewBox="0 0 21 21" fill="none" xmlns="http://www.w3.org/2000/svg">
<path d="M19.25 1.4H17.5C17.5 1.0287 17.3525 0.672601 17.0899 0.410051C16.8274 0.1475 16.4713 0 16.1 0C15.7287 0 15.3726 0.1475 15.1101 0.410051C14.8475 0.672601 14.7 1.0287 14.7 1.4H6.3C6.3 1.0287 6.1525 0.672601 5.88995 0.410051C5.6274 0.1475 5.2713 0 4.9 0C4.5287 0 4.1726 0.1475 3.91005 0.410051C3.6475 0.672601 3.5 1.0287 3.5 1.4H1.75C1.28587 1.4 0.840752 1.58437 0.512563 1.91256C0.184374 2.24075 0 2.68587 0 3.15V19.25C0 19.7141 0.184374 20.1592 0.512563 20.4874C0.840752 20.8156 1.28587 21 1.75 21H19.25C19.7141 21 20.1592 20.8156 20.4874 20.4874C20.8156 20.1592 21 19.7141 21 19.25V3.15C21 2.68587 20.8156 2.24075 20.4874 1.91256C20.1592 1.58437 19.7141 1.4 19.25 1.4ZM15.4 1.4C15.4 1.21435 15.4737 1.0363 15.605 0.905025C15.7363 0.77375 15.9143 0.7 16.1 0.7C16.2857 0.7 16.4637 0.77375 16.595 0.905025C16.7262 1.0363 16.8 1.21435 16.8 1.4V2.8C16.8 2.98565 16.7262 3.1637 16.595 3.29497C16.4637 3.42625 16.2857 3.5 16.1 3.5C15.9143 3.5 15.7363 3.42625 15.605 3.29497C15.4737 3.1637 15.4 2.98565 15.4 2.8V1.4ZM4.2 1.4C4.2 1.21435 4.27375 1.0363 4.40503 0.905025C4.5363 0.77375 4.71435 0.7 4.9 0.7C5.08565 0.7 5.2637 0.77375 5.39497 0.905025C5.52625 1.0363 5.6 1.21435 5.6 1.4V2.8C5.6 2.98565 5.52625 3.1637 5.39497 3.29497C5.2637 3.42625 5.08565 3.5 4.9 3.5C4.71435 3.5 4.5363 3.42625 4.40503 3.29497C4.27375 3.1637 4.2 2.98565 4.2 2.8V1.4ZM20.3 19.25C20.2992 19.5282 20.1883 19.7948 19.9915 19.9915C19.7948 20.1883 19.5282 20.2992 19.25 20.3H1.75C1.47178 20.2992 1.20519 20.1883 1.00846 19.9915C0.811722 19.7948 0.700831 19.5282 0.7 19.25V5.6H20.3V19.25ZM20.3 4.9H0.7V3.15C0.700831 2.87178 0.811722 2.60519 1.00846 2.40846C1.20519 2.21172 1.47178 2.10083 1.75 2.1H3.5V2.8C3.5 3.1713 3.6475 3.5274 3.91005 3.78995C4.1726 4.0525 4.5287 4.2 4.9 4.2C5.2713 4.2 5.6274 4.0525 5.88995 3.78995C6.1525 3.5274 6.3 3.1713 6.3 2.8V2.1H14.7V2.8C14.7 3.1713 14.8475 3.5274 15.1101 3.78995C15.3726 4.0525 15.7287 4.2 16.1 4.2C16.4713 4.2 16.8274 4.0525 17.0899 3.78995C17.3525 3.5274 17.5 3.1713 17.5 2.8V2.1H19.25C19.5282 2.10083 19.7948 2.21172 19.9915 2.40846C20.1883 2.60519 20.2992 2.87178 20.3 3.15V4.9Z" fill="#ECE7E7"/>
<path d="M2.53903 10.15H5.3792C5.50474 10.15 5.62514 10.0993 5.71392 10.009C5.80269 9.91878 5.85256 9.79637 5.85256 9.66874V6.78124C5.85256 6.6536 5.80269 6.53119 5.71392 6.44094C5.62514 6.35069 5.50474 6.29999 5.3792 6.29999H2.53903C2.41349 6.29999 2.29309 6.35069 2.20432 6.44094C2.11555 6.53119 2.06567 6.6536 2.06567 6.78124V9.66874C2.06567 9.79637 2.11555 9.91878 2.20432 10.009C2.29309 10.0993 2.41349 10.15 2.53903 10.15ZM3.0124 7.26249H4.90584V9.18749H3.0124V7.26249Z" fill="#ECE7E7"/>
<path d="M2.53903 14.6999H5.3792C5.50474 14.6999 5.62514 14.6492 5.71392 14.559C5.80269 14.4687 5.85256 14.3463 5.85256 14.2187V11.3312C5.85256 11.2035 5.80269 11.0811 5.71392 10.9909C5.62514 10.9006 5.50474 10.8499 5.3792 10.8499H2.53903C2.41349 10.8499 2.29309 10.9006 2.20432 10.9909C2.11555 11.0811 2.06567 11.2035 2.06567 11.3312V14.2187C2.06567 14.3463 2.11555 14.4687 2.20432 14.559C2.29309 14.6492 2.41349 14.6999 2.53903 14.6999ZM3.0124 11.8124H4.90584V13.7374H3.0124V11.8124Z" fill="#ECE7E7"/>
<path d="M2.53903 19.25H5.3792C5.50474 19.25 5.62514 19.1993 5.71392 19.109C5.80269 19.0188 5.85256 18.8963 5.85256 18.7687V15.8812C5.85256 15.7536 5.80269 15.6312 5.71392 15.5409C5.62514 15.4507 5.50474 15.4 5.3792 15.4H2.53903C2.41349 15.4 2.29309 15.4507 2.20432 15.5409C2.11555 15.6312 2.06567 15.7536 2.06567 15.8812V18.7687C2.06567 18.8963 2.11555 19.0188 2.20432 19.109C2.29309 19.1993 2.41349 19.25 2.53903 19.25ZM3.0124 16.3625H4.90584V18.2875H3.0124V16.3625Z" fill="#ECE7E7"/>
<path d="M9.08005 10.15H11.9202C12.0458 10.15 12.1662 10.0993 12.2549 10.009C12.3437 9.91878 12.3936 9.79637 12.3936 9.66874V6.78124C12.3936 6.6536 12.3437 6.53119 12.2549 6.44094C12.1662 6.35069 12.0458 6.29999 11.9202 6.29999H9.08005C8.95451 6.29999 8.83411 6.35069 8.74533 6.44094C8.65656 6.53119 8.60669 6.6536 8.60669 6.78124V9.66874C8.60669 9.79637 8.65656 9.91878 8.74533 10.009C8.83411 10.0993 8.95451 10.15 9.08005 10.15ZM9.55341 7.26249H11.4469V9.18749H9.55341V7.26249Z" fill="#ECE7E7"/>
<path d="M15.6211 10.15H18.4612C18.5868 10.15 18.7072 10.0993 18.7959 10.009C18.8847 9.91878 18.9346 9.79637 18.9346 9.66874V6.78124C18.9346 6.6536 18.8847 6.53119 18.7959 6.44094C18.7072 6.35069 18.5868 6.29999 18.4612 6.29999H15.6211C15.4955 6.29999 15.3751 6.35069 15.2863 6.44094C15.1976 6.53119 15.1477 6.6536 15.1477 6.78124V9.66874C15.1477 9.79637 15.1976 9.91878 15.2863 10.009C15.3751 10.0993 15.4955 10.15 15.6211 10.15ZM16.0944 7.26249H17.9879V9.18749H16.0944V7.26249Z" fill="#ECE7E7"/>
<path d="M15.6211 14.6999H18.4612C18.5868 14.6999 18.7072 14.6492 18.7959 14.559C18.8847 14.4687 18.9346 14.3463 18.9346 14.2187V11.3312C18.9346 11.2035 18.8847 11.0811 18.7959 10.9909C18.7072 10.9006 18.5868 10.8499 18.4612 10.8499H15.6211C15.4955 10.8499 15.3751 10.9006 15.2863 10.9909C15.1976 11.0811 15.1477 11.2035 15.1477 11.3312V14.2187C15.1477 14.3463 15.1976 14.4687 15.2863 14.559C15.3751 14.6492 15.4955 14.6999 15.6211 14.6999ZM16.0944 11.8124H17.9879V13.7374H16.0944V11.8124Z" fill="#ECE7E7"/>
<path d="M15.6211 19.25H18.4612C18.5868 19.25 18.7072 19.1993 18.7959 19.109C18.8847 19.0188 18.9346 18.8963 18.9346 18.7687V15.8812C18.9346 15.7536 18.8847 15.6312 18.7959 15.5409C18.7072 15.4507 18.5868 15.4 18.4612 15.4H15.6211C15.4955 15.4 15.3751 15.4507 15.2863 15.5409C15.1976 15.6312 15.1477 15.7536 15.1477 15.8812V18.7687C15.1477 18.8963 15.1976 19.0188 15.2863 19.109C15.3751 19.1993 15.4955 19.25 15.6211 19.25ZM16.0944 16.3625H17.9879V18.2875H16.0944V16.3625Z" fill="#ECE7E7"/>
<path d="M9.08005 14.6999H11.9202C12.0458 14.6999 12.1662 14.6492 12.2549 14.559C12.3437 14.4687 12.3936 14.3463 12.3936 14.2187V11.3312C12.3936 11.2035 12.3437 11.0811 12.2549 10.9909C12.1662 10.9006 12.0458 10.8499 11.9202 10.8499H9.08005C8.95451 10.8499 8.83411 10.9006 8.74533 10.9909C8.65656 11.0811 8.60669 11.2035 8.60669 11.3312V14.2187C8.60669 14.3463 8.65656 14.4687 8.74533 14.559C8.83411 14.6492 8.95451 14.6999 9.08005 14.6999ZM9.55341 11.8124H11.4469V13.7374H9.55341V11.8124Z" fill="#ECE7E7"/>
<path d="M9.08005 19.25H11.9202C12.0458 19.25 12.1662 19.1993 12.2549 19.109C12.3437 19.0188 12.3936 18.8963 12.3936 18.7687V15.8812C12.3936 15.7536 12.3437 15.6312 12.2549 15.5409C12.1662 15.4507 12.0458 15.4 11.9202 15.4H9.08005C8.95451 15.4 8.83411 15.4507 8.74533 15.5409C8.65656 15.6312 8.60669 15.7536 8.60669 15.8812V18.7687C8.60669 18.8963 8.65656 19.0188 8.74533 19.109C8.83411 19.1993 8.95451 19.25 9.08005 19.25ZM9.55341 16.3625H11.4469V18.2875H9.55341V16.3625Z" fill="#ECE7E7"/>
</svg>
