<svg width="18" height="16" viewBox="0 0 18 16" fill="none" xmlns="http://www.w3.org/2000/svg">
<path d="M14.3857 8.18571C14.8964 7.47857 15.2107 6.65357 15.25 5.75C15.25 4.21786 14.0321 3 12.5 3C10.9679 3 9.75 4.21786 9.75 5.75C9.78929 6.61429 10.1036 7.47857 10.6143 8.18571C8.53214 8.5 7 10.3071 7 12.4286V13.6071C7 13.8429 7.15714 14 7.39286 14H17.6071C17.8429 14 18 13.8429 18 13.6071V12.4286C18 10.3071 16.4679 8.5 14.3857 8.18571ZM12.5 3.78571C13.6 3.78571 14.4643 4.65 14.4643 5.75C14.425 6.69286 13.9929 7.55714 13.2857 8.18571C12.9714 8.5 12.5 8.57857 12.1071 8.42143C11.95 8.38214 11.8321 8.30357 11.7143 8.18571C11.0071 7.55714 10.575 6.69286 10.5357 5.75C10.5357 4.65 11.4 3.78571 12.5 3.78571ZM17.2143 13.2143H7.78571V12.4286C7.78571 10.4643 9.35714 8.89286 11.3214 8.89286H11.3607L11.4786 8.97143C11.5179 9.01071 11.5571 9.01071 11.5964 9.05L11.7536 9.12857L11.9107 9.20714H11.95C12.1071 9.28571 12.3036 9.28571 12.5 9.325C12.6964 9.325 12.8536 9.28571 13.05 9.24643H13.0893L13.2857 9.16786L13.4429 9.08929L13.5607 9.01071L13.6786 8.89286C15.6429 8.89286 17.2143 10.4643 17.2143 12.4286V13.2143Z" fill="white"/>
<path d="M4.58008 7.66113H7.35547V8.85742H4.58008V12.002H3.30859V8.85742H0.533203V7.66113H3.30859V4.75586H4.58008V7.66113Z" fill="white"/>
</svg>
