<svg width="11" height="11" viewBox="0 0 11 11" fill="none" xmlns="http://www.w3.org/2000/svg">
<g clip-path="url(#clip0)">
<path d="M6.6 5.5L10.7643 1.33571C11.0786 1.02143 11.0786 0.55 10.7643 0.235714C10.45 -0.0785714 9.97857 -0.0785714 9.66429 0.235714L5.5 4.4L1.33571 0.235714C1.02143 -0.0785714 0.55 -0.0785714 0.235714 0.235714C-0.0785714 0.55 -0.0785714 1.02143 0.235714 1.33571L4.4 5.5L0.235714 9.66429C-0.0785714 9.97857 -0.0785714 10.45 0.235714 10.7643C0.392857 10.9214 0.55 11 0.785714 11C1.02143 11 1.17857 10.9214 1.33571 10.7643L5.5 6.6L9.66429 10.7643C9.82143 10.9214 10.0571 11 10.2143 11C10.3714 11 10.6071 10.9214 10.7643 10.7643C11.0786 10.45 11.0786 9.97857 10.7643 9.66429L6.6 5.5Z" fill="#C1272D"/>
</g>
<defs>
<clipPath id="clip0">
<rect width="11" height="11" fill="white"/>
</clipPath>
</defs>
</svg>
