<svg width="11" height="12" viewBox="0 0 11 12" fill="none" xmlns="http://www.w3.org/2000/svg">
<path d="M5.5 0C5.14292 0 4.85345 0.289471 4.85345 0.646552V6.80614L3.3681 5.32919C3.11678 5.07929 2.71081 5.07929 2.45949 5.32919C2.20614 5.5811 2.20614 5.99106 2.45949 6.24297L5.0431 8.81198C5.16433 8.93238 5.32866 9 5.5 9C5.67134 9 5.83567 8.93238 5.9569 8.81198L8.54051 6.24297C8.79386 5.99105 8.79386 5.5811 8.54051 5.32919C8.28919 5.07929 7.88322 5.07929 7.6319 5.32919L6.14655 6.80614V0.646552C6.14655 0.289471 5.85708 0 5.5 0Z" fill="#FFA610"/>
<path d="M0 10.4444C0 10.857 0.150231 11.2527 0.417644 11.5444C0.685057 11.8361 1.04775 12 1.42593 12H9.57407C9.95225 12 10.3149 11.8361 10.5824 11.5444C10.8498 11.2527 11 10.857 11 10.4444V8.61111C11 8.2736 10.7264 8 10.3889 8C10.0514 8 9.77778 8.2736 9.77778 8.61111V10.4444C9.77778 10.5034 9.75632 10.5599 9.71811 10.6016C9.67991 10.6433 9.6281 10.6667 9.57407 10.6667H1.42593C1.3719 10.6667 1.32009 10.6433 1.28189 10.6016C1.24368 10.5599 1.22222 10.5034 1.22222 10.4444V8.61111C1.22222 8.2736 0.948618 8 0.611111 8C0.273604 8 0 8.2736 0 8.61111V10.4444Z" fill="#FFA610"/>
</svg>
