<svg width="11" height="11" viewBox="0 0 11 11" fill="none" xmlns="http://www.w3.org/2000/svg">
<path d="M0.5 2.13917H6.66883C6.88167 2.80583 7.4985 3.272 8.225 3.272C8.9515 3.272 9.568 2.80583 9.78067 2.13917H10.4972C10.7732 2.13917 10.9972 1.91533 10.9972 1.63917C10.9972 1.363 10.7732 1.13917 10.4972 1.13917H9.78317C9.57233 0.4725 8.95383 0 8.225 0C7.49617 0 6.87733 0.4725 6.6665 1.13917H0.5C0.223833 1.13917 0 1.363 0 1.63917C0 1.91533 0.223833 2.13917 0.5 2.13917ZM8.225 0.9725C8.57567 0.9725 8.86067 1.25783 8.86067 1.6085C8.86067 1.95917 8.5755 2.2445 8.225 2.2445C7.87433 2.2445 7.589 1.95917 7.589 1.6085C7.589 1.25783 7.87417 0.9725 8.225 0.9725Z" fill="white"/>
<path d="M10.497 4.97249H4.328C4.11517 4.30583 3.4985 3.83966 2.772 3.83966C2.0455 3.83966 1.42867 4.30583 1.21583 4.97249H0.5C0.223833 4.97249 0 5.19633 0 5.47249C0 5.74866 0.223833 5.97249 0.5 5.97249H1.21367C1.42467 6.63916 2.04317 7.11166 2.772 7.11166C3.50083 7.11166 4.11933 6.63916 4.33017 5.97249H5.01483C5.02467 5.97249 5.034 5.97249 5.04383 5.97249H10.497C10.7732 5.97249 11 5.75016 11 5.47399C11 5.47349 11 5.47299 11 5.47249C11 5.47199 11 5.47149 11 5.47099C11 5.19483 10.7732 4.97249 10.497 4.97249ZM2.772 6.11016C2.42133 6.11016 2.136 5.82466 2.136 5.47399C2.136 5.12333 2.42133 4.83833 2.772 4.83833C3.12267 4.83833 3.408 5.12349 3.408 5.47399C3.408 5.82466 3.12267 6.11016 2.772 6.11016Z" fill="white"/>
<path d="M10.497 8.80582H7.737C7.52517 8.13915 6.9075 7.66998 6.17983 7.66998C5.45217 7.66998 4.83467 8.13915 4.62283 8.80582H0.5C0.223833 8.80582 0 9.02965 0 9.30582C0 9.58198 0.223833 9.80582 0.5 9.80582H4.62267C4.8345 10.4725 5.45233 10.9418 6.18 10.9418C6.90767 10.9418 7.52533 10.4725 7.73733 9.80582H10.4972C10.7732 9.80582 10.9972 9.58198 10.9972 9.30582C10.9972 9.02965 10.7732 8.80582 10.497 8.80582ZM6.18 9.97248C5.82933 9.97248 5.544 9.68715 5.544 9.33648C5.544 8.98582 5.8295 8.70065 6.18 8.70065C6.53067 8.70065 6.816 8.98598 6.816 9.33648C6.816 9.68715 6.53083 9.97248 6.18 9.97248Z" fill="white"/>
</svg>
