<svg width="12" height="18" viewBox="0 0 12 18" fill="none" xmlns="http://www.w3.org/2000/svg">
<path d="M6.49529 17.0786L6.4953 17.0787L6.49806 17.0778C6.65616 17.0279 6.78905 16.9036 6.84326 16.7496L6.84344 16.7491C7.03373 16.1985 7.42758 15.5117 7.92229 14.7258C8.13766 14.3837 8.37373 14.0205 8.61917 13.6428C8.93161 13.162 9.25923 12.6579 9.57863 12.1444C10.7259 10.2997 11.7766 8.17159 11.7766 5.97277L11.7766 5.97199C11.7545 3.16901 9.30484 0.9 6.33829 0.9C3.35062 0.9 0.9 3.16874 0.9 5.97277C0.9 8.17192 1.97287 10.2801 3.09725 12.1432C3.4689 12.759 3.85087 13.3517 4.20931 13.9078C4.39332 14.1933 4.57113 14.4692 4.73817 14.7336C5.23217 15.5158 5.6311 16.1969 5.8326 16.7476C5.91805 17.0361 6.24132 17.1508 6.49529 17.0786ZM8.65145 11.6309C8.30203 12.2099 7.94213 12.7652 7.59645 13.2986C7.51559 13.4234 7.4355 13.5469 7.35651 13.6693C6.97977 14.253 6.62781 14.8101 6.33832 15.3388C5.96965 14.6646 5.49688 13.9339 4.99915 13.1645C4.67764 12.6676 4.34572 12.1546 4.02471 11.6302C2.92306 9.80988 1.9645 7.84583 1.9645 5.97277C1.9645 3.74263 3.90123 1.91856 6.33829 1.91856C8.77515 1.91856 10.7118 3.74234 10.7121 5.97223C10.6906 7.84602 9.73163 9.81035 8.65145 11.6309Z" fill="black" stroke="black" stroke-width="0.2"/>
<path d="M6.33824 3.63311C4.9674 3.63311 3.85409 4.67405 3.85409 5.97277C3.85409 7.27236 4.98995 8.31243 6.33824 8.31243C7.70908 8.31243 8.8224 7.27149 8.8224 5.97277C8.8224 4.67318 7.68654 3.63311 6.33824 3.63311ZM6.33824 7.31665C5.5015 7.31665 4.84569 6.69712 4.84569 5.95231C4.84569 5.2075 5.5015 4.58796 6.33824 4.58796C7.17498 4.58796 7.83079 5.2075 7.83079 5.95231C7.83079 6.69712 7.17498 7.31665 6.33824 7.31665Z" fill="black" stroke="black" stroke-width="0.3"/>
</svg>
