<svg width="11" height="16" viewBox="0 0 11 16" fill="none" xmlns="http://www.w3.org/2000/svg">
<path d="M5.38945 0C8.35366 0 10.7452 2.40842 10.7452 5.35579C10.7452 7.22526 8.67366 11.6547 6.92208 15.0568C6.61892 15.6463 6.02945 16 5.37261 16C4.71577 16 4.12629 15.6463 3.82313 15.0568C2.0884 11.6716 -2.38419e-05 7.24211 -2.38419e-05 5.35579C0.0336599 2.40842 2.42524 0 5.38945 0ZM4.9684 14.4842C5.08629 14.72 5.30524 14.7537 5.38945 14.7537C5.47366 14.7537 5.69261 14.72 5.8105 14.4842C8.15156 9.93684 9.48208 6.61895 9.48208 5.37263C9.49892 3.09895 7.64629 1.26316 5.38945 1.26316C3.13261 1.26316 1.27998 3.09895 1.27998 5.37263C1.27998 6.60211 2.62734 9.93684 4.9684 14.4842Z" fill="#FFA610"/>
<path d="M5.38946 7.61256C4.14304 7.61256 3.13262 6.60214 3.13262 5.35572C3.13262 4.1093 4.14304 3.09888 5.38946 3.09888C6.63588 3.09888 7.6463 4.1093 7.6463 5.35572C7.6463 6.60214 6.63588 7.61256 5.38946 7.61256Z" fill="#FFA610"/>
</svg>
