<svg width="110" height="44" viewBox="0 0 110 44" fill="none" xmlns="http://www.w3.org/2000/svg">
<path d="M55.7333 0.209534H61.8095C67.2571 0.209534 70.819 3.56192 70.819 9.00953C70.819 14.4572 67.2571 18.0191 61.8095 18.0191H55.7333V0.209534ZM61.6 15.2952C65.1619 15.2952 67.4667 13.2 67.4667 9.21906C67.4667 5.23811 65.1619 3.14287 61.6 3.14287H58.8762V15.5048H61.6V15.2952Z" fill="#FFA000"/>
<path d="M76.4762 0.209534H79.8286L83.3905 9.00953C83.8095 10.0572 84.2286 11.5238 84.2286 11.5238C84.2286 11.5238 84.6476 10.0572 85.0667 9.00953L88.6286 0.209534H92.1905L93.6572 18.0191H90.5143L89.8857 7.96192C89.8857 6.70477 89.8857 5.23811 89.8857 5.23811C89.8857 5.23811 89.2572 6.9143 88.8381 7.96192L85.9048 15.0857H83.181L80.2476 8.17144C79.8286 7.12382 79.2 5.44763 79.2 5.44763C79.2 5.44763 79.2 7.12382 79.2 8.17144L78.5714 18.2286H75.4286L76.4762 0.209534Z" fill="#FFA000"/>
<path d="M99.3143 13.619C100.362 14.6667 102.038 15.5048 103.714 15.5048C105.391 15.5048 106.229 14.6667 106.229 13.4095C106.229 10.0571 97.8477 10.6857 97.8477 5.2381C98.0572 2.09524 100.781 0 104.133 0C106.019 0 107.905 0.628571 109.371 1.88571L107.905 4.60952C106.857 3.77143 105.391 3.14286 103.924 3.14286C102.248 3.14286 101.2 3.98095 101.2 5.2381C101.2 8.59048 109.581 7.75238 109.581 13.4095C109.581 16.3429 107.486 18.6476 103.714 18.6476C101.41 18.6476 99.3143 17.8095 97.6381 16.1333L99.3143 13.619Z" fill="#FFA000"/>
<g opacity="0.85">
<g opacity="0.85">
<path opacity="0.85" d="M61.3905 20.5333C62.8571 20.5333 64.3238 20.9523 65.3714 22L64.7429 22.8381C63.9048 22 62.4381 21.5809 61.3905 21.5809C58.6667 21.5809 56.7809 23.6762 56.7809 26.1904C56.7809 28.9142 58.6667 31.0095 61.3905 31.0095C62.6476 31.0095 64.1143 30.3809 64.9524 29.5428L65.5809 30.3809C64.5333 31.219 63.2762 32.0571 61.1809 32.0571C57.8286 32.0571 55.5238 29.5428 55.5238 26.1904C55.7333 23.0476 58.0381 20.5333 61.3905 20.5333Z" fill="#666666"/>
<path opacity="0.85" d="M77.5238 20.7428H80.8762C81.9238 20.7428 82.5524 20.9524 82.9714 21.1619C84.019 21.5809 84.6476 22.6285 84.6476 23.8857C84.6476 25.3524 83.8095 26.6095 82.5524 27.0285C82.5524 27.0285 82.7619 27.2381 82.7619 27.4476L85.2762 32.0571H84.019L81.5048 27.2381H78.5714V32.0571H77.5238V20.7428ZM81.2952 26.1904C82.5524 26.1904 83.6 25.1428 83.6 23.8857C83.6 23.0476 83.1809 22.2095 82.3429 22C81.9238 21.7904 81.7143 21.7904 80.8762 21.7904H78.5714V26.4H81.2952V26.1904Z" fill="#666666"/>
<path opacity="0.85" d="M97.4286 20.7428H98.4762L101.41 27.4476C101.619 28.0762 102.038 28.9143 102.038 28.9143C102.038 28.9143 102.248 28.0762 102.667 27.4476L105.6 20.7428H106.857L107.695 32.0571H106.648L106.019 24.0952C106.019 23.4666 106.019 22.6285 106.019 22.6285C106.019 22.6285 105.6 23.6762 105.391 24.0952L102.667 29.9619H101.619L98.8953 24.0952C98.6858 23.4666 98.2667 22.419 98.2667 22.419C98.2667 22.419 98.2667 23.4666 98.2667 24.0952L97.6381 32.0571H96.5905L97.4286 20.7428Z" fill="#666666"/>
</g>
</g>
<path d="M39.6 16.9714L40.6476 13.4095H46.9333L48.1905 16.9714H51.5429L45.6762 0.209534H42.3238L36.4572 16.9714H39.6ZM43.1619 6.0762C43.3714 5.02858 43.7905 3.35239 43.7905 3.35239C43.7905 3.35239 44.2095 5.02858 44.4191 6.0762L46.0953 10.8952H41.4857L43.1619 6.0762Z" fill="#FFA000"/>
<path d="M51.5429 20.3238H48.4L38.3429 37.2952H33.9429C33.7333 34.1524 31.0095 31.6381 27.6571 31.6381C24.3048 31.6381 21.7905 34.1524 21.3714 37.2952H17.8095L10.4762 24.9333L10.2667 25.1429C11.5238 23.8857 12.5714 22.2095 12.5714 20.1143C12.5714 18.2286 11.7333 16.5524 10.2667 15.2952L17.8095 2.72381H37.9238C38.7619 0.838095 38.9714 0 38.9714 0H16.1333L7.75238 14.0381C7.33333 14.0381 6.91429 13.8286 6.28571 13.8286C2.72381 13.8286 0 16.5524 0 20.1143C0 23.6762 2.72381 26.4 6.28571 26.4C6.91429 26.4 7.54286 26.1905 8.17143 25.981H7.96191L16.1333 39.8095H21.7905C22.6286 42.3238 24.9333 44 27.6571 44C30.381 44 32.6857 42.3238 33.5238 39.8095H39.8095L51.5429 20.3238ZM2.09524 20.1143C2.09524 17.8095 3.98095 15.9238 6.28571 15.9238C8.59048 15.9238 10.4762 17.8095 10.4762 20.1143C10.4762 22.4191 8.59048 24.3048 6.28571 24.3048C3.98095 24.3048 2.09524 22.4191 2.09524 20.1143ZM9.42857 25.5619C9.21905 25.5619 9.21905 25.7714 9.00952 25.7714C9.21905 25.7714 9.42857 25.5619 9.42857 25.5619ZM21.3714 37.9238C21.3714 38.3429 21.3714 38.7619 21.581 38.9714C21.3714 38.5524 21.3714 38.1333 21.3714 37.9238ZM27.6571 42.1143C25.3524 42.1143 23.4667 40.2286 23.4667 37.9238C23.4667 35.619 25.3524 33.7333 27.6571 33.7333C29.9619 33.7333 31.8476 35.619 31.8476 37.9238C31.8476 40.2286 29.9619 42.1143 27.6571 42.1143ZM33.9429 38.9714C33.9429 38.5524 34.1524 38.3429 34.1524 37.9238C33.9429 38.1333 33.9429 38.5524 33.9429 38.9714Z" fill="#FFA000"/>
</svg>
