<svg width="20" height="18" viewBox="0 0 20 18" fill="none" xmlns="http://www.w3.org/2000/svg">
<path d="M12.8492 2.51628L11.5322 1.78362C11.4592 1.73721 11.3642 1.73117 11.2861 1.75407C11.2003 1.77926 11.1314 1.83338 11.0951 1.91185L10.5986 2.82045L10.1544 2.57776C9.95023 2.45964 9.70648 2.43789 9.48012 2.5043C9.25376 2.57071 9.06819 2.7184 8.95236 2.9304L7.24248 6.06002C7.15422 6.22155 7.21147 6.41669 7.373 6.50494C7.53453 6.5932 7.72967 6.53595 7.81792 6.37442L9.52781 3.2448C9.55539 3.19432 9.60316 3.15488 9.6656 3.13656C9.72805 3.11824 9.78956 3.12563 9.84003 3.15321L10.0039 3.24926L7.02534 8.70086L4.31159 13.6679C3.99719 14.2433 3.81726 14.8726 3.77273 15.5299L3.66464 17.1554C3.65028 17.3376 3.78881 17.4919 3.96876 17.4985C4.00456 17.505 4.04359 17.4935 4.08262 17.4821C4.12165 17.4706 4.15058 17.4536 4.18732 17.4344L5.49678 16.4653C6.01809 16.075 6.45821 15.5813 6.77261 15.0059L12.6014 4.3014C12.6842 4.14997 12.6347 3.95254 12.481 3.862L12.9774 2.9534C13.0679 2.79968 13.0084 2.59673 12.8492 2.51628ZM6.18707 14.686C6.00505 15.0191 5.77807 15.3146 5.51622 15.5779L4.49657 15.0208C4.5767 14.6582 4.70043 14.2998 4.88474 13.9745L7.44406 9.29012L8.75648 10.0072L6.18707 14.686ZM9.06078 9.42621L7.74836 8.70916L10.5669 3.55034L11.8793 4.26739L9.06078 9.42621ZM11.9055 3.5476L11.1585 3.13943L11.5004 2.51351L12.2498 2.92948L11.9055 3.5476Z" fill="#1D1A1A"/>
</svg>
