<svg width="14" height="15" viewBox="0 0 14 15" fill="none" xmlns="http://www.w3.org/2000/svg">
<path d="M9.4 7.07143C10.05 6.10714 10.45 4.98214 10.5 3.75C10.5 1.66071 8.95 0 7 0C5.05 0 3.5 1.66071 3.5 3.75C3.55 4.92857 3.95 6.10714 4.6 7.07143C1.95 7.5 0 9.96428 0 12.8571V14.4643C0 14.7857 0.2 15 0.5 15H13.5C13.8 15 14 14.7857 14 14.4643V12.8571C14 9.96428 12.05 7.5 9.4 7.07143ZM7 1.07143C8.4 1.07143 9.5 2.25 9.5 3.75C9.45 5.03571 8.9 6.21429 8 7.07143C7.6 7.5 7 7.60714 6.5 7.39286C6.3 7.33929 6.15 7.23214 6 7.07143C5.1 6.21429 4.55 5.03571 4.5 3.75C4.5 2.25 5.6 1.07143 7 1.07143ZM13 13.9286H1V12.8571C1 10.1786 3 8.03571 5.5 8.03571H5.55L5.7 8.14286C5.75 8.19643 5.8 8.19643 5.85 8.25L6.05 8.35714L6.25 8.46429H6.3C6.5 8.57143 6.75 8.57143 7 8.625C7.25 8.625 7.45 8.57143 7.7 8.51786H7.75L8 8.41071L8.2 8.30357L8.35 8.19643L8.5 8.03571C11 8.03571 13 10.1786 13 12.8571V13.9286Z" fill="black"/>
</svg>
