<svg width="13" height="16" viewBox="0 0 13 16" fill="none" xmlns="http://www.w3.org/2000/svg">
<circle cx="6.5" cy="8.5" r="6.5" fill="#C4C4C4"/>
<path d="M5.6582 10.3984V10.0234C5.6582 9.59375 5.73633 9.23633 5.89258 8.95117C6.04883 8.66602 6.32227 8.37109 6.71289 8.06641C7.17773 7.69922 7.47656 7.41406 7.60938 7.21094C7.74609 7.00781 7.81445 6.76562 7.81445 6.48438C7.81445 6.15625 7.70508 5.9043 7.48633 5.72852C7.26758 5.55273 6.95312 5.46484 6.54297 5.46484C6.17188 5.46484 5.82812 5.51758 5.51172 5.62305C5.19531 5.72852 4.88672 5.85547 4.58594 6.00391L4.09375 4.97266C4.88672 4.53125 5.73633 4.31055 6.64258 4.31055C7.4082 4.31055 8.01562 4.49805 8.46484 4.87305C8.91406 5.24805 9.13867 5.76562 9.13867 6.42578C9.13867 6.71875 9.0957 6.98047 9.00977 7.21094C8.92383 7.4375 8.79297 7.6543 8.61719 7.86133C8.44531 8.06836 8.14648 8.33789 7.7207 8.66992C7.35742 8.95508 7.11328 9.19141 6.98828 9.37891C6.86719 9.56641 6.80664 9.81836 6.80664 10.1348V10.3984H5.6582ZM5.41797 12.2676C5.41797 11.6777 5.70508 11.3828 6.2793 11.3828C6.56055 11.3828 6.77539 11.4609 6.92383 11.6172C7.07227 11.7695 7.14648 11.9863 7.14648 12.2676C7.14648 12.5449 7.07031 12.7656 6.91797 12.9297C6.76953 13.0898 6.55664 13.1699 6.2793 13.1699C6.00195 13.1699 5.78906 13.0918 5.64062 12.9355C5.49219 12.7754 5.41797 12.5527 5.41797 12.2676Z" fill="white"/>
</svg>
