<svg width="38" height="38" viewBox="0 0 38 38" fill="none" xmlns="http://www.w3.org/2000/svg">
<g filter="url(#filter0_d)">
<path d="M23.855 6.54664C24.2123 6.54664 24.5424 6.73724 24.721 7.04664L30.6903 17.3857C30.869 17.6951 30.869 18.0763 30.6903 18.3857L24.721 28.7249C24.5424 29.0343 24.2123 29.2249 23.855 29.2249L11.9164 29.2249C11.5592 29.2249 11.2291 29.0343 11.0504 28.7249L5.08113 18.3857C4.9025 18.0763 4.9025 17.6951 5.08113 17.3857L11.0504 7.04664C11.2291 6.73724 11.5592 6.54664 11.9164 6.54664L23.855 6.54664Z" fill="#FFA000"/>
</g>
<path fill-rule="evenodd" clip-rule="evenodd" d="M13.9243 16.1797C14.1756 15.9345 14.5705 15.9345 14.8039 16.1985C15.0372 16.4626 15.0372 16.8776 14.768 17.1228L12.8832 19.0466C12.7755 19.1787 12.614 19.2353 12.4704 19.2353C12.2909 19.2541 12.1293 19.1787 12.0037 19.0466L10.1728 17.0662C9.93948 16.8021 9.93948 16.3872 10.1908 16.142C10.4421 15.8968 10.837 15.8968 11.0703 16.142L11.896 17.0285C11.896 17.0473 11.914 17.0662 11.9319 17.085C12.0934 14.0483 14.2295 11.5397 17.1373 11.0682C19.3631 10.7287 21.5889 11.6718 22.953 13.5579C23.0069 13.6334 23.0428 13.7277 23.0607 13.822C23.0787 14.0295 23.0069 14.2369 22.8453 14.369C22.7735 14.4256 22.6838 14.4633 22.594 14.4821C22.3966 14.501 22.1991 14.4256 22.0735 14.2558C20.9427 12.6903 19.1297 11.917 17.2989 12.2188C14.9295 12.596 13.1884 14.6142 13.0448 17.085L13.1525 16.9719L13.9243 16.1797ZM23.9941 15.9534L25.825 17.9338C26.0583 18.1979 26.0583 18.6128 25.825 18.858C25.5737 19.1032 25.1788 19.1032 24.9455 18.8392L24.1198 17.9527L24.0659 17.8961C23.9223 20.9328 21.7684 23.4414 18.8605 23.9318C16.6347 24.2713 14.409 23.3282 13.0448 21.4421C12.9909 21.3666 12.955 21.2723 12.9371 21.178C12.9012 20.9705 12.9909 20.7631 13.1525 20.631C13.2243 20.5744 13.314 20.5367 13.4038 20.5179C13.6012 20.499 13.7987 20.5744 13.9243 20.7442C15.0372 22.2908 16.8681 23.0642 18.699 22.7812C21.0504 22.404 22.7915 20.3858 22.953 17.9338L22.8633 18.0281L22.0914 18.8203C21.8402 19.0655 21.4453 19.0655 21.2119 18.8015C20.9786 18.5374 20.9786 18.1224 21.2299 17.8772L23.1146 15.9534C23.2223 15.8213 23.3838 15.7647 23.5274 15.7647C23.7069 15.7459 23.8685 15.8213 23.9941 15.9534Z" fill="white"/>
<defs>
<filter id="filter0_d" x="0.596497" y="0.0110474" width="36.5785" height="37.7494" filterUnits="userSpaceOnUse" color-interpolation-filters="sRGB">
<feFlood flood-opacity="0" result="BackgroundImageFix"/>
<feColorMatrix in="SourceAlpha" type="matrix" values="0 0 0 0 0 0 0 0 0 0 0 0 0 0 0 0 0 0 127 0"/>
<feOffset dx="1" dy="1"/>
<feGaussianBlur stdDeviation="1"/>
<feColorMatrix type="matrix" values="0 0 0 0 0 0 0 0 0 0 0 0 0 0 0 0 0 0 0.1 0"/>
<feBlend mode="normal" in2="BackgroundImageFix" result="effect1_dropShadow"/>
<feBlend mode="normal" in="SourceGraphic" in2="effect1_dropShadow" result="shape"/>
</filter>
</defs>
</svg>
