<svg width="123" height="98" viewBox="0 0 123 98" fill="none" xmlns="http://www.w3.org/2000/svg">
<g opacity="0.7">
<mask id="mask0" mask-type="alpha" maskUnits="userSpaceOnUse" x="11" y="8" width="101" height="82">
<path opacity="0.25" d="M71.1852 54.8551C71.1852 54.6764 71.2806 54.5114 71.4353 54.422L90.7331 43.284C90.8878 43.1947 91.0785 43.1947 91.2332 43.284L110.531 54.4222C110.686 54.5115 110.781 54.6765 110.781 54.8551L110.781 77.1311C110.781 77.3098 110.686 77.4748 110.531 77.5641L91.2333 88.7022L91.4833 89.1351L91.2333 88.7022C91.0786 88.7915 90.888 88.7915 90.7333 88.7022L71.4352 77.564C71.2805 77.4747 71.1852 77.3097 71.1852 77.1311L71.1852 54.8551Z" stroke="#FDD835"/>
<path opacity="0.25" d="M52.0614 20.8688C52.0614 20.6901 52.1568 20.5251 52.3115 20.4357L71.6093 9.29773C71.7641 9.20844 71.9547 9.20843 72.1094 9.29772L91.4074 20.4359C91.5621 20.5252 91.6574 20.6902 91.6574 20.8688L91.6574 43.1448C91.6574 43.3235 91.5621 43.4885 91.4073 43.5779L72.1095 54.7159L72.3595 55.1488L72.1095 54.7159C71.9548 54.8052 71.7642 54.8052 71.6095 54.7159L52.3114 43.5777C52.1567 43.4884 52.0614 43.3234 52.0614 43.1448L52.0614 20.8688Z" stroke="#FDD835"/>
<path opacity="0.25" d="M31.8756 54.8551C31.8756 54.6764 31.971 54.5114 32.1257 54.422L51.4236 43.284C51.5783 43.1947 51.7689 43.1947 51.9236 43.284L71.2216 54.4222C71.3763 54.5115 71.4716 54.6765 71.4716 54.8551L71.4716 77.1311C71.4716 77.3098 71.3763 77.4748 71.2215 77.5641L51.9237 88.7022L52.1737 89.1351L51.9237 88.7022C51.769 88.7915 51.5784 88.7915 51.4237 88.7022L32.1256 77.564C31.9709 77.4747 31.8756 77.3097 31.8756 77.1311L31.8756 54.8551Z" stroke="#FDD835"/>
<path opacity="0.25" d="M12.2292 21.0186C12.2292 20.84 12.3247 20.675 12.4795 20.5857L31.788 9.44767C31.9428 9.35837 32.1335 9.35832 32.2883 9.44753L51.5917 20.5764C51.7464 20.6657 51.8417 20.8306 51.8417 21.0091L51.8363 43.2759C51.8363 43.4545 51.7408 43.6195 51.586 43.7088L32.2775 54.8468L32.5275 55.2796L32.2775 54.8468C32.1227 54.9361 31.932 54.9362 31.7773 54.847L12.4739 43.7181C12.3191 43.6288 12.2238 43.4639 12.2239 43.2854L12.2292 21.0186Z" stroke="#FDD835"/>
</mask>
<g mask="url(#mask0)">
<rect x="103.058" y="76.8912" width="107.923" height="48.0808" transform="rotate(-180 103.058 76.8912)" fill="#FDD835"/>
</g>
</g>
</svg>
