<svg width="16" height="13" viewBox="0 0 16 13" fill="none" xmlns="http://www.w3.org/2000/svg">
<path fill-rule="evenodd" clip-rule="evenodd" d="M3.92432 5.17969C4.17562 4.93449 4.57051 4.93449 4.80386 5.19855C5.0372 5.46261 5.0372 5.87756 4.76796 6.12276L2.88324 8.04664C2.77554 8.17867 2.61399 8.23525 2.47039 8.23525C2.2909 8.25412 2.12935 8.17867 2.0037 8.04664L0.172828 6.06618C-0.060518 5.80212 -0.060518 5.38716 0.190778 5.14196C0.442074 4.89676 0.836968 4.89676 1.07031 5.14196L1.896 6.02845C1.896 6.04732 1.91395 6.06618 1.9319 6.08504C2.09345 3.04833 4.22947 0.539749 7.13732 0.0682108C9.36308 -0.271297 11.5889 0.67178 12.953 2.55793C13.0069 2.63338 13.0428 2.72769 13.0607 2.82199C13.0787 3.02947 13.0069 3.23695 12.8453 3.36898C12.7735 3.42556 12.6838 3.46329 12.594 3.48215C12.3966 3.50101 12.1991 3.42556 12.0735 3.25581C10.9427 1.6903 9.12974 0.91698 7.29887 1.21876C4.9295 1.59599 3.18838 3.61418 3.04478 6.08504L3.15248 5.97187L3.92432 5.17969ZM13.9941 4.95336L15.825 6.93382C16.0583 7.19788 16.0583 7.61284 15.825 7.85804C15.5737 8.10324 15.1788 8.10324 14.9455 7.83918L14.1198 6.95268L14.0659 6.8961C13.9223 9.93281 11.7684 12.4414 8.8605 12.9318C6.63473 13.2713 4.40897 12.3282 3.04479 10.4421C2.99094 10.3666 2.95504 10.2723 2.93709 10.178C2.90119 9.97053 2.99094 9.76305 3.15249 9.63102C3.22429 9.57444 3.31403 9.53671 3.40378 9.51785C3.60123 9.49899 3.79868 9.57444 3.92433 9.74419C5.03721 11.2908 6.86808 12.0642 8.69895 11.7812C11.0504 11.404 12.7915 9.38582 12.953 6.93382L12.8633 7.02813L12.0914 7.82031C11.8402 8.06551 11.4453 8.06551 11.2119 7.80145C10.9786 7.53739 10.9786 7.12244 11.2299 6.87724L13.1146 4.95336C13.2223 4.82133 13.3838 4.76475 13.5274 4.76475C13.7069 4.74588 13.8685 4.82133 13.9941 4.95336Z" fill="white"/>
</svg>
